<svg version="1.1" preserveAspectRatio="xMinYMin slice" width="770" height="768" viewBox="0 0 770 768"><path d="M216 288 L244 272 L244 304 Z" fill="#ffffff" rel="410"></path><path d="M216 288 L244 304 L216 320 Z" fill="#DDDDDD" rel="411"></path><path d="M216 320 L244 304 L244 336 Z" fill="#DDDDDD" rel="412"></path><path d="M244 272 L272 256 L272 288 Z" fill="#ffffff" rel="458"></path><path d="M244 272 L272 288 L244 304 Z" fill="#ffffff" rel="459"></path><path d="M244 304 L272 288 L272 320 Z" fill="#ffffff" rel="460"></path><path d="M244 304 L272 320 L244 336 Z" fill="#DDDDDD" rel="461"></path><path d="M244 336 L272 320 L272 352 Z" fill="#DDDDDD" rel="462"></path><path d="M272 256 L300 240 L300 272 Z" fill="#ffffff" rel="506"></path><path d="M272 256 L300 272 L272 288 Z" fill="#ffffff" rel="507"></path><path d="M272 288 L300 272 L300 304 Z" fill="#001f3f" rel="508"></path><path d="M272 288 L300 304 L272 320 Z" fill="#ffffff" rel="509"></path><path d="M272 320 L300 304 L300 336 Z" fill="#ffffff" rel="510"></path><path d="M272 320 L300 336 L272 352 Z" fill="#DDDDDD" rel="511"></path><path d="M272 352 L300 336 L300 368 Z" fill="#DDDDDD" rel="512"></path><path d="M300 240 L328 224 L328 256 Z" fill="#ffffff" rel="554"></path><path d="M300 240 L328 256 L300 272 Z" fill="#ffffff" rel="555"></path><path d="M300 272 L328 256 L328 288 Z" fill="#001f3f" rel="556"></path><path d="M300 272 L328 288 L300 304 Z" fill="#001f3f" rel="557"></path><path d="M300 304 L328 288 L328 320 Z" fill="#ffffff" rel="558"></path><path d="M300 304 L328 320 L300 336 Z" fill="#ffffff" rel="559"></path><path d="M300 336 L328 320 L328 352 Z" fill="#ffffff" rel="560"></path><path d="M300 336 L328 352 L300 368 Z" fill="#DDDDDD" rel="561"></path><path d="M300 368 L328 352 L328 384 Z" fill="#DDDDDD" rel="562"></path><path d="M328 224 L356 208 L356 240 Z" fill="#ffffff" rel="602"></path><path d="M328 224 L356 240 L328 256 Z" fill="#ffffff" rel="603"></path><path d="M328 256 L356 240 L356 272 Z" fill="#001f3f" rel="604"></path><path d="M328 256 L356 272 L328 288 Z" fill="#001f3f" rel="605"></path><path d="M328 288 L356 272 L356 304 Z" fill="#001f3f" rel="606"></path><path d="M328 288 L356 304 L328 320 Z" fill="#ffffff" rel="607"></path><path d="M328 320 L356 304 L356 336 Z" fill="#ffffff" rel="608"></path><path d="M328 320 L356 336 L328 352 Z" fill="#ffffff" rel="609"></path><path d="M328 352 L356 336 L356 368 Z" fill="#ffffff" rel="610"></path><path d="M328 352 L356 368 L328 384 Z" fill="#DDDDDD" rel="611"></path><path d="M328 384 L356 368 L356 400 Z" fill="#DDDDDD" rel="612"></path><path d="M356 208 L384 224 L356 240 Z" fill="#ffffff" rel="651"></path><path d="M356 240 L384 224 L384 256 Z" fill="#ffffff" rel="652"></path><path d="M356 240 L384 256 L356 272 Z" fill="#001f3f" rel="653"></path><path d="M356 272 L384 256 L384 288 Z" fill="#ffffff" rel="654"></path><path d="M356 272 L384 288 L356 304 Z" fill="#001f3f" rel="655"></path><path d="M356 304 L384 288 L384 320 Z" fill="#001f3f" rel="656"></path><path d="M356 304 L384 320 L356 336 Z" fill="#ffffff" rel="657"></path><path d="M356 336 L384 320 L384 352 Z" fill="#ffffff" rel="658"></path><path d="M356 336 L384 352 L356 368 Z" fill="#ffffff" rel="659"></path><path d="M356 368 L384 352 L384 384 Z" fill="#DDDDDD" rel="660"></path><path d="M356 368 L384 384 L356 400 Z" fill="#DDDDDD" rel="661"></path><path d="M384 224 L412 240 L384 256 Z" fill="#ffffff" rel="701"></path><path d="M384 256 L412 240 L412 272 Z" fill="#ffffff" rel="702"></path><path d="M384 256 L412 272 L384 288 Z" fill="#ffffff" rel="703"></path><path d="M384 288 L412 272 L412 304 Z" fill="#ffffff" rel="704"></path><path d="M384 288 L412 304 L384 320 Z" fill="#001f3f" rel="705"></path><path d="M384 320 L412 304 L412 336 Z" fill="#ffffff" rel="706"></path><path d="M384 320 L412 336 L384 352 Z" fill="#ffffff" rel="707"></path><path d="M384 352 L412 336 L412 368 Z" fill="#DDDDDD" rel="708"></path><path d="M384 352 L412 368 L384 384 Z" fill="#DDDDDD" rel="709"></path><path d="M412 240 L440 256 L412 272 Z" fill="#ffffff" rel="751"></path><path d="M412 272 L440 256 L440 288 Z" fill="#ffffff" rel="752"></path><path d="M412 272 L440 288 L412 304 Z" fill="#ffffff" rel="753"></path><path d="M412 304 L440 288 L440 320 Z" fill="#ffffff" rel="754"></path><path d="M412 304 L440 320 L412 336 Z" fill="#ffffff" rel="755"></path><path d="M412 336 L440 320 L440 352 Z" fill="#DDDDDD" rel="756"></path><path d="M412 336 L440 352 L412 368 Z" fill="#DDDDDD" rel="757"></path><path d="M440 256 L468 272 L440 288 Z" fill="#ffffff" rel="801"></path><path d="M440 288 L468 272 L468 304 Z" fill="#ffffff" rel="802"></path><path d="M440 288 L468 304 L440 320 Z" fill="#ffffff" rel="803"></path><path d="M440 320 L468 304 L468 336 Z" fill="#DDDDDD" rel="804"></path><path d="M440 320 L468 336 L440 352 Z" fill="#DDDDDD" rel="805"></path><path d="M468 272 L496 288 L468 304 Z" fill="#ffffff" rel="851"></path><path d="M468 304 L496 288 L496 320 Z" fill="#DDDDDD" rel="852"></path><path d="M468 304 L496 320 L468 336 Z" fill="#DDDDDD" rel="853"></path></svg>